<svg xmlns="http://www.w3.org/2000/svg" viewBox="0 0 130 130" id="flag">
  <path fill="#f8f9fa" d="M1 45.45h128v39.09H1z"></path>
  <path fill="#242d44" d="M1 24.09h128v24.29H1z"></path>
  <path fill="#3b8a31" d="M1 81.62h128v24.29H1z"></path>
  <path fill="#ef2b2d" d="M1 52.85h128v24.29H1z"></path>
  <path fill="#f8f9fa" d="M79.33 45.65c2-3.69 2.59-13.08 2.59-13.08s-7.52 5.6-9.53 9.32a3.94 3.94 0 0 0 .79 4.77l-25.1 45.83 1.74.94L74.91 47.6a3.94 3.94 0 0 0 4.42-1.95Z"></path>
  <path fill="#f8f9fa" d="M50.67 45.65c-2-3.69-2.59-13.08-2.59-13.08s7.52 5.6 9.53 9.32a3.94 3.94 0 0 1-.79 4.77l25.1 45.83-1.74.94L55.09 47.6a3.94 3.94 0 0 1-4.42-1.95Z"></path>
  <path fill="#ef2b2d" d="M78.14 66.72a32.79 32.79 0 0 1-3.17 14A37.8 37.8 0 0 1 65 93.43a37.68 37.68 0 0 1-10-12.72 32.41 32.41 0 0 1 0-28A37.68 37.68 0 0 1 65 40a37.8 37.8 0 0 1 10 12.74 32.74 32.74 0 0 1 3.14 13.98Z"></path>
  <path fill="#242d44" d="M78.14 66.72a32.79 32.79 0 0 1-3.17 14 32.41 32.41 0 0 1 0-28 32.74 32.74 0 0 1 3.17 14zm-19.94 0a32.79 32.79 0 0 1-3.17 14 32.41 32.41 0 0 1 0-28 32.74 32.74 0 0 1 3.17 14z"></path>
  <path fill="#fff" d="M64.54 44.25v16.62c-1.36-.64-2.4-4.12-2.4-8.32s1.04-7.67 2.4-8.3zm3.32 8.3c0 4.19-1 7.67-2.4 8.32V44.25c1.36.64 2.4 4.12 2.4 8.3zm-3.32 20.03V89.2c-1.36-.63-2.4-4.11-2.4-8.31s1.04-7.67 2.4-8.31zm3.32 8.31c0 4.19-1 7.66-2.4 8.31V72.58c1.36.65 2.4 4.12 2.4 8.31z"></path>
  <circle cx="65" cy="66.72" r="2.52" fill="#fff"></circle>
</svg>
